<svg width="20" height="21" viewBox="0 0 20 21" fill="none" xmlns="http://www.w3.org/2000/svg">
<path d="M16 20.0996H4C1.8 20.0996 0 18.2996 0 16.0996V4.09961C0 1.89961 1.8 0.0996094 4 0.0996094H16C18.2 0.0996094 20 1.89961 20 4.09961V16.0996C20 18.2996 18.2 20.0996 16 20.0996Z" fill="#999999"/>
<path d="M16.0002 16.0994V11.6993C16.0002 9.49934 15.5002 7.89941 13.0002 7.89941C11.8002 7.89941 11.0002 8.59934 10.6002 9.19934V8.09937H8.2002V16.0994H10.7002V12.0994C10.7002 11.0994 10.9002 9.99939 12.2002 9.99939C13.5002 9.99939 13.5002 11.1994 13.5002 12.0994V15.9994H16.0002V16.0994Z" fill="white"/>
<path d="M6.7002 8.09961H4.2002V16.0996H6.7002V8.09961Z" fill="white"/>
<path d="M5.39999 4.09961C4.59999 4.09961 4 4.69963 4 5.49963C4 6.29963 4.59999 6.99963 5.39999 6.99963C6.19999 6.99963 6.79999 6.29963 6.79999 5.49963C6.89999 4.79963 6.19999 4.09961 5.39999 4.09961Z" fill="white"/>
</svg>
