<svg width="13" height="14" viewBox="0 0 13 14" fill="none" xmlns="http://www.w3.org/2000/svg">
<path d="M6.52107 13.5984C6.70624 13.5986 6.88387 13.5243 7.0148 13.392C7.14573 13.2596 7.2192 13.08 7.21899 12.8928L7.22394 8.00348L12.0648 8.00348C12.2499 8.00369 12.4276 7.92942 12.5585 7.79704C12.6894 7.66467 12.7629 7.48507 12.7627 7.29786C12.7627 6.90752 12.4509 6.59224 12.0648 6.59224L7.22394 6.59224L7.22394 1.69793C7.22394 1.30759 6.9121 0.99231 6.52602 0.99231C6.13994 0.99231 5.82811 1.30759 5.82811 1.69793L5.82811 6.59224L0.987266 6.59224C0.601187 6.59224 0.289353 6.90752 0.289353 7.29786C0.289353 7.6882 0.601187 8.00348 0.987266 8.00348H5.82811L5.82811 12.8978C5.82811 13.2781 6.14489 13.5984 6.52107 13.5984Z" fill="white"/>
</svg>
